HIERARCHY
ROOT SimulationBone
{
	OFFSET 0.000000 0.000000 0.000000
	CHANNELS 6 Xposition Yposition Zposition Zrotation Yrotation Xrotation 
	JOINT Hips
	{
		OFFSET 0.000000 0.000000 0.000000
		CHANNELS 6 Xposition Yposition Zposition Zrotation Yrotation Xrotation 
		JOINT RightUpLeg
		{
			OFFSET 0.103454 1.857828 10.548502
			CHANNELS 3 Zrotation Yrotation Xrotation
			JOINT RightLeg
			{
				OFFSET 43.500000 -0.000023 -0.000008
				CHANNELS 3 Zrotation Yrotation Xrotation
				JOINT RightFoot
				{
					OFFSET 42.372192 0.000008 0.000008
					CHANNELS 3 Zrotation Yrotation Xrotation
					JOINT RightToe
					{
						OFFSET 17.299997 -0.000001 0.000000
						CHANNELS 3 Zrotation Yrotation Xrotation
						End Site
						{
							OFFSET 0.000000 0.000000 0.000000
						}
					}
				}
			}
		}
		JOINT LeftUpLeg
		{
			OFFSET 0.103459 1.857828 -10.548505
			CHANNELS 3 Zrotation Yrotation Xrotation
			JOINT LeftLeg
			{
				OFFSET 43.500046 -0.000027 0.000015
				CHANNELS 3 Zrotation Yrotation Xrotation
				JOINT LeftFoot
				{
					OFFSET 42.372261 -0.000008 0.000019
					CHANNELS 3 Zrotation Yrotation Xrotation
					JOINT LeftToe
					{
						OFFSET 17.299992 -0.000006 -0.000002
						CHANNELS 3 Zrotation Yrotation Xrotation
						End Site
						{
							OFFSET 0.000000 0.000000 0.000000
						}
					}
				}
			}
		}
		JOINT Spine
		{
			OFFSET 6.901967 -2.603729 0.000006
			CHANNELS 3 Zrotation Yrotation Xrotation
			JOINT Spine1
			{
				OFFSET 12.588098 -0.000001 -0.000005
				CHANNELS 3 Zrotation Yrotation Xrotation
				JOINT Spine2
				{
					OFFSET 12.343207 0.000001 -0.000003
					CHANNELS 3 Zrotation Yrotation Xrotation
					JOINT Neck
					{
						OFFSET 25.832897 -0.000006 -0.000001
						CHANNELS 3 Zrotation Yrotation Xrotation
						JOINT Head
						{
							OFFSET 11.766602 0.000010 0.000005
							CHANNELS 3 Zrotation Yrotation Xrotation
							End Site
							{
								OFFSET 0.000000 0.000000 0.000000
							}
						}
					}
					JOINT RightShoulder
					{
						OFFSET 19.745901 -1.480368 6.000114
						CHANNELS 3 Zrotation Yrotation Xrotation
						JOINT RightArm
						{
							OFFSET 11.284125 -0.000009 -0.000026
							CHANNELS 3 Zrotation Yrotation Xrotation
							JOINT RightForeArm
							{
								OFFSET 33.000046 0.000005 0.000037
								CHANNELS 3 Zrotation Yrotation Xrotation
								JOINT RightHand
								{
									OFFSET 25.200003 0.000016 -0.000001
									CHANNELS 3 Zrotation Yrotation Xrotation
									End Site
									{
										OFFSET 0.000000 0.000000 0.000000
									}
								}
							}
						}
					}
					JOINT LeftShoulder
					{
						OFFSET 19.746088 -1.480377 -6.000074
						CHANNELS 3 Zrotation Yrotation Xrotation
						JOINT LeftArm
						{
							OFFSET 11.284132 -0.000015 -0.000021
							CHANNELS 3 Zrotation Yrotation Xrotation
							JOINT LeftForeArm
							{
								OFFSET 33.000107 0.000015 0.000018
								CHANNELS 3 Zrotation Yrotation Xrotation
								JOINT LeftHand
								{
									OFFSET 25.199774 0.000138 0.000420
									CHANNELS 3 Zrotation Yrotation Xrotation
									End Site
									{
										OFFSET 0.000000 0.000000 0.000000
									}
								}
							}
						}
					}
				}
			}
		}
	}
}
MOTION
Frames: 11
Frame Time: 0.033333
172.694199 0.000000 -186.946550 180.000000 82.734937 180.000000 -1.065295 90.416618 -0.012719 89.072032 -0.086727 178.883332 172.584715 -6.407699 175.217520 -23.361912 2.562353 -4.745857 88.506076 1.608416 -9.918776 21.454557 0.003126 0.000019 172.697945 6.290798 -173.026286 -26.034540 -0.101449 4.528086 87.067652 -1.583584 8.452941 21.454551 -0.003092 -0.000001 6.133079 -0.056148 -0.072092 2.253371 -0.090268 -0.145046 1.935274 -0.091280 -0.144498 -0.578753 -6.730365 1.170503 -22.932435 8.570362 -3.975959 170.308021 -78.348724 8.408419 -0.111900 62.555210 21.490369 -33.311297 -9.666558 0.977686 7.283420 -2.526866 6.886173 -152.262006 81.303464 29.665810 -17.428088 -64.017054 -43.381619 -32.792165 17.562368 -1.451265 11.544524 3.421410 9.971526 
172.695507 0.000000 -187.429644 180.000000 82.520148 180.000000 -1.066462 90.327667 -0.031903 89.102597 -0.085595 178.867503 172.758953 -6.448805 175.311026 -23.643627 2.560047 -4.668059 88.950373 1.584294 -9.957323 21.454558 0.003114 0.000018 172.984267 6.319710 -172.894149 -26.287375 -0.048210 4.558870 87.528184 -1.629491 8.496429 21.454555 -0.003103 0.000000 6.119765 -0.053799 -0.059247 2.226719 -0.089090 -0.119322 1.908630 -0.089945 -0.118779 -0.393728 -6.657004 1.124499 -23.020417 8.574598 -4.004718 170.100793 -78.371523 8.618511 -0.000550 62.660203 21.480188 -33.486894 -9.657236 0.980840 7.217784 -2.521264 6.996953 -152.689275 81.346283 29.231639 -17.602909 -64.022013 -43.351375 -32.744678 17.567516 -1.450568 11.523254 3.331168 10.070025 
172.695614 0.000000 -187.961196 180.000000 82.306021 180.000000 -1.050932 90.238029 -0.055518 89.138978 -0.105069 178.840659 173.014866 -6.464303 175.388316 -23.863687 2.567471 -4.594696 89.387662 1.559888 -10.014398 21.454558 0.003096 0.000015 173.328577 6.359596 -172.789784 -26.515196 0.002699 4.600203 88.004419 -1.682013 8.551504 21.454553 -0.003086 0.000002 6.099069 -0.051802 -0.039545 2.185334 -0.098381 -0.079990 1.867236 -0.098990 -0.079401 -0.204575 -6.572365 1.094665 -23.047155 8.538703 -3.991496 169.906625 -78.377930 8.815883 0.195789 62.680462 21.719981 -33.673587 -9.658986 0.985094 7.164396 -2.465485 7.067880 -153.108266 81.391683 28.805715 -17.658537 -64.005395 -43.444320 -32.443897 17.362553 -1.430951 11.574003 3.145475 10.165487 
172.697482 0.000000 -188.537147 180.000000 82.096461 180.000000 -1.019653 90.145973 -0.083478 89.132101 -0.122774 178.808353 173.280369 -6.485504 175.502940 -24.063943 2.554203 -4.551009 89.839322 1.556606 -10.080842 21.454558 0.003093 0.000015 173.690044 6.378403 -172.709434 -26.697504 0.041127 4.655086 88.487430 -1.741778 8.621676 21.454553 -0.003091 -0.000001 6.056996 -0.049876 -0.014201 2.101149 -0.103896 -0.029326 1.783055 -0.104205 -0.028703 0.006789 -6.525149 1.062821 -23.023588 8.491671 -3.978323 169.984789 -78.366087 8.736707 0.418134 62.651276 22.018363 -33.787184 -9.639875 0.986173 7.134753 -2.395973 7.135983 -153.429367 81.432732 28.479336 -17.569304 -63.965357 -43.688834 -31.948049 16.944991 -1.393676 11.699800 2.943616 10.325430 
172.710792 0.000000 -189.160897 180.000000 81.898553 180.000000 -0.972217 90.046898 -0.123341 89.065159 -0.126683 178.799436 173.516065 -6.525208 175.684787 -24.284884 2.515338 -4.542567 90.326608 1.581550 -10.148390 21.454558 0.003101 0.000016 174.060595 6.368809 -172.607145 -26.832113 0.065104 4.711396 88.982229 -1.801482 8.703468 21.454551 -0.003091 0.000001 5.991201 -0.047931 0.011427 1.969543 -0.099554 0.022051 1.651431 -0.099559 0.022644 0.204910 -6.545010 1.015056 -22.939055 8.500492 -4.015937 170.316805 -78.354885 8.399190 0.629660 62.646919 22.005838 -33.738877 -9.510402 0.976612 7.108101 -2.349358 7.372066 -153.622812 81.478242 28.282208 -17.309038 -63.926561 -44.077728 -31.309703 16.365528 -1.343303 11.835805 2.718267 10.514298 
172.726202 0.000000 -189.831159 180.000000 81.721749 180.000000 -0.904350 89.937813 -0.163411 88.978277 -0.127488 178.824753 173.773113 -6.565902 175.899064 -24.507926 2.475405 -4.556924 90.847349 1.624894 -10.221884 21.454558 0.003104 0.000016 174.476964 6.342805 -172.493668 -26.932334 0.082261 4.774042 89.500415 -1.865844 8.796514 21.454553 -0.003086 0.000001 5.917164 -0.047417 0.034010 1.821466 -0.095318 0.067297 1.503364 -0.095032 0.067858 0.355941 -6.612482 0.957317 -22.841794 8.585841 -4.108702 170.744293 -78.336915 7.964797 0.875202 62.656071 21.793563 -33.565008 -9.330965 0.961049 7.073662 -2.356449 7.647473 -153.740168 81.520828 28.162159 -16.888990 -63.902533 -44.627694 -30.587998 15.716873 -1.287184 11.998090 2.468808 10.750039 
172.740075 0.000000 -190.547795 180.000000 81.565132 180.000000 -0.817614 89.815117 -0.198550 88.909509 -0.142151 178.847305 174.110032 -6.597400 176.071007 -24.705452 2.451495 -4.563780 91.396824 1.665456 -10.297822 21.454557 0.003111 0.000018 174.948629 6.315797 -172.432756 -27.037830 0.104419 4.854900 90.059876 -1.944883 8.900342 21.454551 -0.003097 0.000001 5.845985 -0.050264 0.057002 1.679088 -0.101273 0.113318 1.360988 -0.100722 0.113921 0.523463 -6.669281 0.905553 -22.850796 8.679898 -4.205074 171.224469 -78.290190 7.477497 1.217939 62.602638 21.794321 -33.357251 -9.213149 0.948845 7.047421 -2.412027 7.729655 -153.928449 81.548040 27.970869 -16.292158 -63.886352 -45.404410 -29.840892 15.080030 -1.231752 12.180774 2.180669 11.036049 
172.752802 0.000000 -191.314539 180.000000 81.457417 180.000000 -0.719320 89.673897 -0.228181 88.834691 -0.185564 178.849304 174.512973 -6.613004 176.166848 -24.875740 2.434957 -4.567658 91.979139 1.708094 -10.365328 21.454558 0.003117 0.000018 175.411675 6.332800 -172.381025 -27.211844 0.148575 4.890506 90.691300 -2.002760 8.983430 21.454555 -0.003101 -0.000001 5.766835 -0.062304 0.087207 1.520725 -0.125648 0.173611 1.202627 -0.124733 0.174361 0.784757 -6.685197 0.871094 -22.982121 8.723105 -4.258258 171.870919 -78.232181 6.821497 1.675951 62.483008 22.153406 -33.139559 -9.159784 0.940698 7.069798 -2.450534 7.637609 -154.174104 81.556427 27.721805 -15.490263 -63.872104 -46.424116 -29.137266 14.477858 -1.179803 12.358801 1.812876 11.319302 
172.751419 0.000000 -192.154137 180.000000 81.402868 180.000000 -0.629468 89.509842 -0.240414 88.701975 -0.262532 178.838483 174.927415 -6.596303 176.285639 -25.033548 2.405995 -4.632222 92.601601 1.797203 -10.425405 21.454558 0.003115 0.000017 175.814356 6.444495 -172.142405 -27.478322 0.211755 4.759798 91.419125 -1.964659 9.003247 21.454553 -0.003089 0.000000 5.662463 -0.083041 0.122587 1.311899 -0.167351 0.244271 0.993808 -0.165997 0.245271 1.080102 -6.690350 0.858889 -23.071556 8.742381 -4.269832 172.760196 -78.216786 5.916599 2.267075 62.390725 22.746115 -32.898477 -9.134699 0.933961 7.158416 -2.413287 7.554880 -154.252938 81.547664 27.642098 -14.501602 -63.872371 -47.587595 -28.528621 13.919099 -1.132728 12.495068 1.323599 11.459306 
172.748337 0.000000 -193.111399 180.000000 81.399574 180.000000 -0.574478 89.322861 -0.246626 88.511635 -0.363749 178.873165 175.365722 -6.535406 176.573477 -25.149498 2.361896 -4.821003 93.237294 1.965283 -10.546204 21.454560 0.003112 0.000018 176.214304 6.631601 -171.650222 -27.773036 0.275217 4.465940 92.229472 -1.829128 8.969831 21.454558 -0.003092 0.000001 5.534796 -0.110022 0.150719 1.056453 -0.221272 0.300493 0.738358 -0.219598 0.301824 1.281718 -6.708987 0.863663 -23.001191 8.778150 -4.264740 173.809695 -78.272670 4.846314 3.017386 62.386429 23.453930 -32.650773 -9.128596 0.928371 7.272827 -2.327437 7.518527 -154.044125 81.513417 27.854370 -13.381636 -63.904916 -48.728318 -28.036441 13.427868 -1.092321 12.586236 0.781502 11.393329 
172.746465 0.000000 -194.201835 180.000000 81.437974 180.000000 -0.558683 89.099800 -0.242346 88.308790 -0.453272 178.989650 175.854859 -6.467806 177.058051 -25.263382 2.325657 -5.117747 93.892999 2.187757 -10.850875 21.454560 0.003106 0.000017 176.680342 6.780307 -171.101908 -28.069301 0.308752 4.169821 93.116597 -1.694518 8.957236 21.454550 -0.003086 0.000001 5.400730 -0.138271 0.160854 0.788238 -0.277482 0.320857 0.470122 -0.275658 0.322529 1.359283 -6.721526 0.880155 -22.869580 8.827356 -4.253995 174.901405 -78.377985 3.731791 3.921038 62.422615 24.179575 -32.426610 -9.088508 0.921083 7.340654 -2.261710 7.510403 -153.714432 81.446686 28.190139 -12.185114 -63.972310 -49.750353 -27.666366 13.034653 -1.060519 12.663003 0.322635 11.164853 
